# xmcd CD database file
#
# Track frame offsets:
#	150
#	19937
#	39247
#	59060
#
# Disc length: 1042 seconds
#
# Revision: 1
# Processed by: cddbd v1.5PL3 Copyright (c) Steve Scherf et al.
# Submitted via: CDex 1.51
#
DISCID=2f041004
DTITLE=木村由姫 - Twinkle Heart
DYEAR=2000
DGENRE=JPop
TTITLE0=Twinkle Heart
TTITLE1=Your Way My Way
TTITLE2=Twinkle Heart (Instrumental)
TTITLE3=Your Way My Way (Instrumental)
EXTD=YEAR: 2000
EXTT0=
EXTT1=
EXTT2=
EXTT3=
PLAYORDER=
